<svg xmlns="http://www.w3.org/2000/svg" viewBox="0 0 951.97 622.66"><g id="Camada_2" data-name="Camada 2"><g id="Camada_1-2" data-name="Camada 1"><path d="M213,323.43s-60.51,82.46-106.21,80.42S38.85,346.4,38.85,296.62s31.91-178,140.93-192.77c11.75-1.79,38,2,66.13,48,0,0,5.36,3.32,7.66-3.83s-18.38-74-84.51-74S12.55,137.3.29,301.21C-4.81,403.89,58,447.26,102.93,447.26s94.47-53.62,116.43-113.37C224.46,323.68,214.85,318.66,213,323.43Z"/><path d="M208.3,255.25c0,60.94,47.32,56.17,47.32,56.17s26.21,4.09,38.12-26.55c0,0,32,38.47,46-.34-6.13-1.7-28.93-3.57-28.93-23.92v-85s-1.71-8.51-8.86,0-8.17,15.66-8.17,15.66-11.23-16-33-11.91S208.3,194.32,208.3,255.25Zm26.64-18.12s2-31.41,24-35,21.19,31.15,21.19,31.15.25,44.68-24.77,45.7S234.94,237.13,234.94,237.13Z"/><path d="M324.21,206.92s3.06-4.43,12.93-5c2.49-.15,8,.36,15,.74-.49,32.21-1.29,63.43-2.58,80.54C346.16,328.45,308.38,309,308.38,309c-5.64,5.09,6.13,22.13,31.32,22.13,38.8,0,38-52.15,38-52.15l3.79-76.84c15.19-1.78,29.38-7.77,34.93-20.37,5.27-12.34,5.87-30.89,2.3-29.87s-7.49,16.17-30.13,15.83c-1.74,0-3.55-.05-5.4-.06l3.19-64.62s2.72-34.73,22.8-34.73,19.41,17,16.37,31.32,5.42,9.53,5.42,9.53c25.53-8.51,22.81-72.85-24.85-72.85S353,93.89,353,93.89s0,34.9-.4,75.73C338.9,172,326.65,177,321.14,187.51,315.19,201.89,324.21,206.92,324.21,206.92Z"/><path d="M445.32,133c-9.26,10.15-26.3,28.85-26.3,72.76s23.23,52.09,42.89,52.09c26.81,0,57.2-40.09,44.17-55.92,0,0-25.11,34.81-48,22.21,0,0,49.79-13,50.3-67.4S456.46,120.74,445.32,133Zm27.83,9.44c16.59-4.59,24.51,35-28.09,59.49C445.06,201.89,435.36,153.64,473.15,142.4Z"/><path d="M582.16,410.13s49.79-13,50.3-67.4-51.91-36-63.06-23.74c-9.25,10.14-26.3,28.85-26.3,72.76s23.23,52.09,42.89,52.09c26.81,0,57.2-40.09,44.17-55.92C630.16,387.92,605.06,422.73,582.16,410.13Zm15.07-81.7c16.59-4.59,24.51,35-28.09,59.49C569.14,387.92,559.44,339.67,597.23,328.43Z"/><path d="M348.55,438.32c13-10.47,26.56-54.64,2.05-80.17s-51.58-28.6-86.56-13c-26.25,11.68-40.42,34.59-45.86,45.29a2,2,0,0,0,2.82,2.69l41.25-23.22s-15.31,164.43-17.87,215c-15.82-4.11-26.15-10.58-31.72-14.9a2.18,2.18,0,0,0-3.45,2.27c13.71,50.42,57.54,50.42,73,50.42,16.08,0,108.77-26.3,108.77-92.94S348.55,438.32,348.55,438.32Zm-61-77.88s45.19-6.63,41.36,42.13c-3.06,25.28-24.25,35.75-50.29,42.13Zm64,171.7c-16.06,61.3-75.52,58.6-75.52,58.6V479.14c15.55-22.07,48.26-12.88,66,8.53A49.74,49.74,0,0,1,351.56,532.14Z"/><path d="M430.25,350.23c-7.14,0-55.4,8.17-55.4,76.85,0,49.53,29.62,57.45,47,57.45,0,0,49.53,1.53,51.83-71C475.45,355.34,437.4,350.23,430.25,350.23ZM447,408.7c-1.12,30.13-10.82,45.7-24.61,45.7s-26.3-11-23.23-37c2.09-17.76,8.69-31.61,16.49-38.61a15.31,15.31,0,0,1,19.79-.59C441.13,382.76,447.57,391.71,447,408.7Z"/><path d="M557.65,296.11s-11,19.66-49.53,20.93-46.21,10.22-48.51,35.24c0,0,8.49-4.57,30.13-7.55V466.44s28.08-2.08,27.83-27.35,0-93.71,0-93.71l-.06-2.92c1.52-.06,3.07-.11,4.65-.14C568.12,341.3,557.65,296.11,557.65,296.11Z"/><path d="M849.4,214.81c-28.3,89.89-86.91,86.55-87.46,86.51a40,40,0,0,1,5.69-7.32c.36-.36.72-.69,1.08-1a15.3,15.3,0,0,1,14.79-3.24,70.25,70.25,0,0,0,8.87-4.37,82,82,0,0,0,15.39-11.65,41.76,41.76,0,0,0-24.4-9.28c-7.14,0-55.4,8.17-55.4,76.85,0,49.53,29.62,57.45,47,57.45,0,0,49.53,1.53,51.83-71,.34-11.18-.78-20.4-2.88-28a63.89,63.89,0,0,0-2.55-7.43c25.24-26.4,29.11-62.37,29.79-77.23A.88.88,0,0,0,849.4,214.81Zm-49.34,108.1c-1.12,30.13-10.82,45.7-24.61,45.7s-26.3-11-23.23-37c.09-.73.18-1.45.28-2.16h0c.33-2.4.76-4.71,1.25-6.95,18.24-1.78,33-6.49,45.09-13a45,45,0,0,1,1.12,7.41A57.14,57.14,0,0,1,800.06,322.91Z"/><path d="M712.63,362.74c-8.42,24.77-23,23.49-28.34,24s-17.36-2.29-21.7-29.87,9.7-45.95,26.81-49.27S704,314,706.82,316.76s7.86,4.11,14.75-.89.77-40.36-26.55-35.59c-62.3,8.42-57.45,78.89-57.45,78.89,5.36,60.77,42.38,60.51,59.74,53.87,21.33-8.15,31.66-34.72,32.94-43.15S718,352,712.63,362.74Z"/><path d="M552,183.45c8.36,8.72,17.72,18.51,25.7,33.06a19,19,0,0,0-5.66,3.54c-6.91,6.91-2.55,19.48,1.11,25.83.75,1.31,2.61,4.52,6,4.52a5.85,5.85,0,0,0,1.55-.22,5.43,5.43,0,0,0,2.91-1.89c23-19.35,52.29-23.75,61.31-24.65a3.06,3.06,0,0,0-.16-6.1c-9.24-.41-38.38,0-63.92,18.93-1.28-3.51-2.06-7.59-1-8.64,2.84-2.84,16.52-9,29.48-12.27a3.4,3.4,0,0,0-1.44-6.64c-4.94.91-12.51,2.22-19.56,4.06-8.85-16.78-19.18-27.56-28.37-37.14C547.22,162.55,538,153,538.89,133.13c1.86-41.66,27.9-51,49.42-51.44,29.44-.64,48.82,29.22,55.2,39,7.29,11.21,19.12,40.82,6.83,55.81-8.41,10.26-30.48,8.05-41.3,5.1a3.51,3.51,0,0,0-2.08,6.69c9.53,3.42,38.15,11.94,51.88-4.81,15.69-19.13,4.58-52.34-6.11-68.78-7.12-11-28.63-44-63.45-44h-1.21c-36.52.81-58.45,23.38-60.17,61.95C526.81,157.17,538.49,169.35,552,183.45Z"/><path d="M950.18,72.58c-9.25-13.35-55-15.72-92.65-16.8a2,2,0,1,0-.1,4.08C931,62.13,942.1,75,943.61,77.14c.47.68.37,1,.3,1.16l-.06.22c-3.49,12.43-44,11.26-83.1,10.13-11.4-.33-23.18-.67-34.9-.75-24.37-.15-55.54-.51-80.44-1.92-32.1-1.82-41.1-4.74-43.59-6.07,7.79-12.27,51.53-18.56,79.61-18.54a2.2,2.2,0,0,0,.14-4.39,216.66,216.66,0,0,0-38.17.69c-29,3.38-45.27,10-49.6,20.38l0,.1a6.07,6.07,0,0,0,.68,5.74c4.71,6.93,28.33,11.35,131.37,12,9.38.06,18.81.3,28.07.56-15.36,5.76-28.81,15.92-36.13,24.07-23.61-21.71-45.23-15.65-46.17-15.25a4,4,0,0,0-.23,7.25h0c20,10.15,30.14,31.2,31.16,34.65.82,2.79.53,13.08,0,20.71h-1.7l-1.68,1.43c-11.81,10-7,27.74-6.83,28.48l1.61,4.5.13,0c-2.59,14.61-8.3,24.66-17.4,30.67-14.59,9.61-39.19,9.56-75.21-.17a194.85,194.85,0,0,0-34.76-6.35c3.36-4.32,4-10.75,4-10.75,3.2,2.62,11.63,5.55,15.5,6.52a1.39,1.39,0,0,0,1.7-1.6c-3.45-20.18-12-26.15-15-27.68a1.39,1.39,0,0,0-1.81.54c-2.79,4.71-3.73,12.65-3.73,12.65-6.5-4.21-15.64-4.57-19.28-4.52a1.4,1.4,0,0,0-1.35,1.64c2.35,13.56,9.57,20,14.27,22.85-22.79-.94-35.63,4.31-41.16,7.4a3.47,3.47,0,0,0,2.79,6.32c7.05-2.35,30.57-7.64,75.78,4.57,19.22,5.19,35.43,7.79,49.07,7.79,14.8,0,26.57-3.06,35.87-9.19,12.57-8.29,20.37-22.41,23.16-42l29.3-3.05c2.36-.16,4.3-.73,4.09-3.08-.19-2.14-2.14-2.73-4.28-2.8l-31.6-.63c-.19-3.11-1.53-10.83.7-13.79,9.75.15,31.57-.35,40-.9,1.93-.12,3.88-.34,3.79-2.27-.09-1.76-2-2.22-3.79-2.38-6.87-.64-23.26-2.83-34.06-3.77.4-5.9,1.06-18.68-.34-23.41-1.7-5.73-10.54-22.26-25.9-33.72,7.55.15,18.74,3,30.68,15.36l3.38,3.49,2.78-4c9.45-13.6,41.85-32.65,67.62-24.41.13,1.4-.4,4-4.64,7.19-1.16.88-2.72,2-4.52,3.25-12.65,8.9-34.82,25.31-38.3,47.08a2.26,2.26,0,0,0,4.47.72c3.32-18.33,26.82-33.08,38.44-41.26,1.86-1.31,3.46-2.44,4.74-3.41,8.93-6.76,8.58-14.14,6.85-17.88,30.26-.07,51.85-3,55.75-16.55A9.13,9.13,0,0,0,950.18,72.58Z"/><path d="M794.76,67.2c.2,1.79,2.39,14.25,25.34,16.24a152.14,152.14,0,0,0,24.08,2.31c11.92,0,19.61-2.46,23.29-7.41a6.14,6.14,0,0,0,1-6.18c-2.14-5.18-12.34-7.84-18.26-9l8.71-49.51a5.43,5.43,0,0,0,.24-1.62C859.12,2.54,836.29,0,822.8,0s-36.32,2.54-36.32,12.06a5.87,5.87,0,0,0,.29,1.78Zm.7-35.79c4.79,2,12.82,4.05,25.51,4.05h1.72c13.7-.2,22-1.67,26.79-3l-1,5.68c-6-1.54-19-3.68-30.36,2.36-10.38,5.5-19.58-2.31-22-4.64Zm55.2-5.61c-2.8,1.05-10.9,3.4-28.06,3.65-17.87.27-25.9-3.83-28.23-5.34l-.64-4.33c7.84,3.29,20.39,4.35,29.07,4.35s21.05-1,28.91-4.28ZM800.73,66.65l-3.32-22.23a26,26,0,0,0,13.31,4,21.56,21.56,0,0,0,10.21-2.6c9.82-5.2,21.56-3,26.51-1.71l-4,22.54-.05.33v.29a8.73,8.73,0,0,1-2.79,6c-3.34,3.24-9.45,4.74-17.68,4.34C802,76.59,800.77,67,800.73,66.65ZM822.8,6c18,0,29.06,3.87,30.28,6.06v0c-1.22,2.18-12.29,6-30.27,6s-29.08-3.88-30.28-6.07C793.72,9.88,804.8,6,822.8,6Z"/><path d="M513.74,133.2a5.57,5.57,0,0,0,4.93-5.41,98.18,98.18,0,0,1,3.39-24.07c1.7-5.92,3.2-13,7.47-18.47a5.29,5.29,0,0,0-7.82-7.07c-7.42,6.91-12,13.71-14.34,22.14a54.69,54.69,0,0,0,.37,28.88A5.57,5.57,0,0,0,513.74,133.2Z"/><circle cx="809.4" cy="184.53" r="3.26"/></g></g></svg>