<svg xmlns="http://www.w3.org/2000/svg" viewBox="0 0 833.86 699.19"><g id="Camada_2" data-name="Camada 2"><g id="Camada_2-2" data-name="Camada 2"><path d="M417.84,0,0,699.19H833.86Zm0,19.53L816.28,689.19H17.63Z"/><path d="M308.45,258.34v4.76c0,60.56,47.28,110,106,111.76v82.39h6V374.87c58.92-1.54,106.39-51.09,106.39-111.77v-5.52h0c.23-4.43.28-28.31-22.77-50.33-6.38-.64-42.13-4.85-79.4,45.32,0,0,3.44-43.91,64.21-56.93,0,0-13.28-20.81-29.11-30.64,0,0-22.21,3.95-36.38,23.1,0,0,1.53-23,26.81-33.95l-32.73-32.56-32.72,32.56c25.28,11,26.81,33.95,26.81,33.95C397.41,169,375.2,165,375.2,165c-15.83,9.83-29.11,30.64-29.11,30.64,60.77,13,64.21,56.93,64.21,56.93-37.27-50.17-73-46-79.4-45.32-25.53,24.39-22.73,51.07-22.73,51.07Zm112,72.58c6.23-12.72,21.78-40.74,43.13-53.07,21.06-12.16,46.06-17.07,57.26-18.76v4c0,57.37-44.78,104.22-100.39,105.77Zm-106-71.78c11.35,1.74,36.06,6.67,56.92,18.71,21.35,12.33,36.9,40.35,43.12,53.07v37.93c-55.45-1.72-100-48.5-100-105.75Z"/><path d="M167.62,564H104V669.51h63s49,1.19,49-52.77S167.62,564,167.62,564Zm-9.53,81.53h-17V587.64h14.8s22.13.51,22.13,19.91V627S178.34,645.51,158.09,645.51Z"/><rect x="235.02" y="563.98" width="34.39" height="20.25"/><rect x="235.02" y="592.91" width="34.39" height="76.6"/><rect x="367.79" y="563.98" width="34.39" height="20.25"/><rect x="367.79" y="592.91" width="34.39" height="76.6"/><path d="M331.88,644.32v-30h18.21V592.91H331.88V564l-33.71,15v14H285.41v21.45h12.76v34.38c0,20.26,17,22.3,29.28,22.3a231.86,231.86,0,0,0,24.68-1.53s-2-12.77-3.4-20.77C330.17,655.38,331.88,644.32,331.88,644.32Z"/><path d="M487.28,591.38c-23,0-31.91,15.57-31.91,15.57v-14H424v76.6h33.19V627.76c0-4.21,3.71-14.42,13.34-14.42,13.76,0,13.6,9.7,13.6,9.7v46.47H517V614.74C517,605.42,510.26,591.38,487.28,591.38Z"/><path d="M601.92,591.38C578.94,591.38,570,607,570,607V564H538.6V669.51h33.19V627.76c0-4.21,3.7-14.42,13.34-14.42,13.76,0,13.6,9.7,13.6,9.7v46.47h32.93V614.74C631.66,605.42,624.9,591.38,601.92,591.38Z"/><path d="M700.72,591.38c-8.85,0-48.17-1.54-52.76,39.23,0,0-3,39.07,49.87,40.17,0,0,49.45,3.15,51.58-39.4C747.7,593.59,709.58,591.38,700.72,591.38Zm-2.05,60.51s-17.73,1.11-17.73-20.32,17.73-20.28,17.73-20.28S716,609.3,716,631.1,698.67,651.89,698.67,651.89Z"/><path d="M167.76,508.77h21.93l4.43,16.08h12.17l-20-67.52h-14.8l-20.05,67.52h11.94Zm10.74-39.34h.3l8,28.56H170.69Z"/><path d="M250.38,521.06V474.82H240.32v6H240a11.6,11.6,0,0,0-4.81-5.39,14.83,14.83,0,0,0-16,1.18,19.56,19.56,0,0,0-6.12,8.51,38.1,38.1,0,0,0,0,25.63,19.66,19.66,0,0,0,6.08,8.51,14,14,0,0,0,8.75,3q8.12,0,11.65-6.34h.3v4.82q0,12.87-9.24,12.87a8.67,8.67,0,0,1-5.86-1.94,11.28,11.28,0,0,1-3.23-6.2L211.17,527q1.82,8.41,6.91,12.39a19.82,19.82,0,0,0,12.55,4q9,0,14.38-5.3T250.38,521.06Zm-12.5-12.72a8,8,0,0,1-13.75,0q-2.59-3.91-2.59-10.44t2.59-10.31a8,8,0,0,1,13.75,0q2.58,3.87,2.59,10.31T237.88,508.34Z"/><path d="M271.34,499.6q0-13.62,10.44-13.62a15.88,15.88,0,0,1,2.4.19,13.76,13.76,0,0,0,1.73.19V474.07a7.11,7.11,0,0,0-2.78-.48,11.35,11.35,0,0,0-7.25,2.41,15.5,15.5,0,0,0-4.69,6.48h-.3v-7.66H260.82v50h10.52Z"/><path d="M300.07,522.81a20.08,20.08,0,0,0,21.66,0,19.92,19.92,0,0,0,7-9.08,36.23,36.23,0,0,0,2.44-13.85,36.64,36.64,0,0,0-2.44-13.9,20.19,20.19,0,0,0-7-9.17,19.82,19.82,0,0,0-21.66,0,20.05,20.05,0,0,0-7.06,9.12,40.66,40.66,0,0,0,0,27.8A19.78,19.78,0,0,0,300.07,522.81Zm3.79-35.08a7.89,7.89,0,0,1,7.06-4.21,7.81,7.81,0,0,1,7,4.21q2.52,4.22,2.52,12.15t-2.52,12a7.81,7.81,0,0,1-7,4.16,7.89,7.89,0,0,1-7.06-4.16q-2.55-4.15-2.55-12T303.86,487.73Z"/><path d="M384.53,501q9.24,0,14.3-5.82t5.07-16q0-10.21-5.07-16t-14.3-5.81H359.67v67.52h11.26V501Zm-13.6-32.44h11.72q4.73,0,7.25,2.79t2.51,7.8q0,5-2.51,7.8t-7.25,2.79H370.93Z"/><path d="M449,499.69a36.57,36.57,0,0,0-2.48-14.14,19.5,19.5,0,0,0-7-8.93,18.16,18.16,0,0,0-10.37-3q-9.31,0-14.61,7.09t-5.29,19.2a36.64,36.64,0,0,0,2.4,13.85,19.92,19.92,0,0,0,6.91,9.08A18,18,0,0,0,429.14,526q8.57,0,13.3-4.73A22.34,22.34,0,0,0,448.59,510l-10.74-1.14a12.52,12.52,0,0,1-2.77,5.44,8,8,0,0,1-12.47-1.51Q420.12,509,420,502.62H448.9C448.94,501.93,449,501,449,499.69Zm-28.92-5.58a14.76,14.76,0,0,1,2.67-8,7.47,7.47,0,0,1,6.35-3.22,7.6,7.6,0,0,1,6.42,3.17,15.09,15.09,0,0,1,2.74,8.08Z"/><path d="M475.33,483.52a6.67,6.67,0,0,1,5.67,2.65,16.22,16.22,0,0,1,2.82,6.15L494,489.38a24.4,24.4,0,0,0-5.94-10.87q-4.5-4.92-12.77-4.92a17.81,17.81,0,0,0-10.59,3.22,20.19,20.19,0,0,0-6.91,9.17,37.05,37.05,0,0,0-2.4,13.9,36.64,36.64,0,0,0,2.4,13.85,19.92,19.92,0,0,0,6.91,9.08A18,18,0,0,0,475.33,526q8.49,0,13.18-5.3a26.74,26.74,0,0,0,6.2-12.76l-10.66-1.51q-2,9.73-8.72,9.74c-2.85,0-5.09-1.41-6.72-4.21s-2.44-6.83-2.44-12.06.81-9.34,2.44-12.15S472.48,483.52,475.33,483.52Z"/><path d="M520.85,515.29a6.47,6.47,0,0,1-5.56-2.55q-1.87-2.55-1.88-8.41V474.82H502.9v32.91q0,9.07,3.94,13.66a12.72,12.72,0,0,0,10.1,4.59,13.19,13.19,0,0,0,7.29-2,16.38,16.38,0,0,0,5.26-5.72h.3v6.62h10.06v-50H529.34v27.24q0,6.33-2.48,9.78A7.23,7.23,0,0,1,520.85,515.29Z"/><path d="M571,492.74q-2,1.18-7.44,2.13-8,1.23-11.94,4.92t-3.91,11.34a16.48,16.48,0,0,0,1.8,7.9A12.83,12.83,0,0,0,561,526a15.85,15.85,0,0,0,7-1.61,12,12,0,0,0,5.18-4.73h.3a7.68,7.68,0,0,0,3,4.5,9.85,9.85,0,0,0,5.52,1.37,13.14,13.14,0,0,0,4.8-.66V515a5.26,5.26,0,0,1-1.57.38,1.57,1.57,0,0,1-1.36-.62,4.15,4.15,0,0,1-.45-2.31v-22.7q0-7.47-4.13-11.82t-12.62-4.35a17.55,17.55,0,0,0-11.64,4,17.76,17.76,0,0,0-5.93,11.07l9.69,1.89a10.87,10.87,0,0,1,3-5.58,6.87,6.87,0,0,1,4.77-1.89,6.37,6.37,0,0,1,4.77,1.65,6.16,6.16,0,0,1,1.62,4.5A3.88,3.88,0,0,1,571,492.74Zm1.95,12.63a13.67,13.67,0,0,1-1.39,6.47,9.41,9.41,0,0,1-3.49,3.83,8.41,8.41,0,0,1-4.28,1.23,5,5,0,0,1-4-1.7,6.89,6.89,0,0,1-1.46-4.63,7.21,7.21,0,0,1,1.76-5.11,8.42,8.42,0,0,1,4.7-2.46,46.64,46.64,0,0,0,5.25-1.18,6.08,6.08,0,0,0,2.86-1.56Z"/><polygon points="580.11 453.92 569.07 453.92 562.76 469.15 570.57 469.15 580.11 453.92"/><path d="M604.29,499.6q0-13.62,10.44-13.62a16,16,0,0,1,2.41.19,13.66,13.66,0,0,0,1.72.19V474.07a7.07,7.07,0,0,0-2.78-.48,11.34,11.34,0,0,0-7.24,2.41,15.52,15.52,0,0,0-4.7,6.48h-.3v-7.66H593.78v50h10.51Z"/><rect x="626.08" y="474.82" width="10.44" height="50.02"/><rect x="626" y="456.38" width="10.51" height="11.35"/><path d="M668.13,492.74q-1.95,1.18-7.43,2.13-8,1.23-11.94,4.92t-3.91,11.34a16.48,16.48,0,0,0,1.8,7.9,12.83,12.83,0,0,0,11.57,7,15.85,15.85,0,0,0,7-1.61,12,12,0,0,0,5.18-4.73h.3a7.68,7.68,0,0,0,3,4.5,9.85,9.85,0,0,0,5.52,1.37,13.14,13.14,0,0,0,4.8-.66V515a5.33,5.33,0,0,1-1.57.38,1.55,1.55,0,0,1-1.36-.62,4.15,4.15,0,0,1-.45-2.31v-22.7q0-7.47-4.13-11.82t-12.62-4.35a17.55,17.55,0,0,0-11.64,4,17.76,17.76,0,0,0-5.93,11.07l9.69,1.89a10.87,10.87,0,0,1,3-5.58,6.87,6.87,0,0,1,4.77-1.89,6.37,6.37,0,0,1,4.77,1.65,6.16,6.16,0,0,1,1.62,4.5A3.87,3.87,0,0,1,668.13,492.74Zm2,12.63a13.67,13.67,0,0,1-1.39,6.47,9.41,9.41,0,0,1-3.49,3.83,8.42,8.42,0,0,1-4.29,1.23,5,5,0,0,1-3.94-1.7,6.84,6.84,0,0,1-1.46-4.63,7.17,7.17,0,0,1,1.76-5.11A8.42,8.42,0,0,1,662,503a46.64,46.64,0,0,0,5.25-1.18,6.08,6.08,0,0,0,2.86-1.56Z"/><rect x="149.41" y="530.19" width="51.91" height="8"/><rect x="260.82" y="530.19" width="423.16" height="8"/><rect x="149.41" y="541.76" width="51.91" height="8"/><rect x="260.82" y="541.76" width="423.16" height="8"/></g></g></svg>