<svg xmlns="http://www.w3.org/2000/svg" viewBox="0 0 936.1 352.02"><g id="Camada_2" data-name="Camada 2"><g id="Camada_2-2" data-name="Camada 2"><path d="M158.48,0C111.75,0,31.33,21.83,11.16,66.64c-24.51,59-3.58,86,14.3,93.19s36.76-12.26,36.76-12.26S39.82,290,37.07,306.38c-2.87,13-10.51,19.66-14.25,19.75s-10.3,1.7-10.3,14.55S22.65,352,22.65,352c33.7-5.37,116.85-8.81,173.36-17.32,55.49-11.92,80-67.75,88.51-95S305.8,167,288.94,97,205.2,0,158.48,0Zm52.08,176.11c-6.13,53.17-7.66,60.82-21.7,92.23-7,20.11-15.51,27.77-15.51,27.77s-10.11,12.89-24.75,17C142,315,120,316.59,120,316.59a54.81,54.81,0,0,0,2.4-7.4c.85-3.66,31.75-201.32,31.75-201.32s3.19-12.16,8.68-15.06c4.53-3.13,6.38-2,8.3-2.81s6.93-3.66,7.1-12.09-4-12.29-9-13.76-12.12-4-28.14-2.49-34.6,11.87-47.37,22.21-31.27,30.94-31.27,30.94-8.43,10.81-11.83,13.44-17.28,15.49-28.85-.93c-6.64-9.28-4-31.7,3.14-44.6s29.62-42.64,79-45.19,77.49,19.92,88.46,35.23S216.69,123,210.56,176.11Z"/><path d="M355.08,71.36c5-9.06,7.91-19.47,7.21-28.47S355.2,30.19,346.46,30s-26.55,7.28-29.75,20.23,8,17.05,8,17.05,4.92.89,2.56,7.21S318.25,85,316.33,86s-3.83,4.53-2,9.64a6.18,6.18,0,0,0,6.76,4.27s5.11-2.74,11.94-6.44S350,80.42,355.08,71.36Z"/><path d="M488.18,33.15c-6.76.81-84.31,12-84.31,12s-9.52.46-17.26,14.84-4.51,20.64-.22,21.28,5.75-3.62,6.3-7.15,3.79-13,10.94-14.43,28.11-4,28.11-4a70.25,70.25,0,0,0-3.07,12.64C428,74,415.08,151,415.08,151l-12,73.66s-7,39.21-33.2,40.14c-6.29,0-21.36-8.85-19-33.7s19.31-23.23,19.31-23.23,4.81-.13,6.3,7.7,5.49,6.21,5.49,6.21,5.49-.63,5.07-8.85-4.73-19-16.47-19.66-26,11.53-29.32,31.45-5.36,48.51,34.08,56.55S441.63,252,441.63,252s6.89-7.92,9.7-25.66,27-163.06,27-163.06.72-13.2,9.62-15.54c6.17-2,5.44-7.61,5.44-7.61S494.48,33.45,488.18,33.15Z"/><path d="M595.67,138.85c-1.24-1.49-4.09.3-4.09.3,2.83-4,3.75-9.26,4.07-11.11s1.59-29.49-28.79-29.23-62.94,25.4-68.94,58.95c-8.42,47,18.64,65,42.64,61.62S577.07,208,588.94,191s10.15-37.72,9.77-40.79S596.9,140.34,595.67,138.85Zm-8.38,33c-4.86,21.83-27.07,32.93-35.75,30-15.19-5.24-18.25-24.9-14.55-41.24s16.59-38.55,29.3-41.48,19,.44,19.91,5.63-2,7.32-5.55,9.37-3.26-1.41-3.26-1.41,2.17-8.68-4.27-7.91-6.58,16.4.63,21.19,14.3-2.87,14.3-2.87c-.57,1.21,1.09,8,1.09,8S591.12,156,587.29,171.83Z"/><path d="M702.74,84.25c-8.17,0-20.35,5.28-32.17,16.77,0,0,2.67-8-.14-10.26-2-1.75-3.26-1.62-3.26-1.62l-41.12,5.79s-7.29.81-14.44,10-5.11,14.88-2,16,5.11-1.66,5.94-3.76,3.8-8.62,14.31-10.15a85.65,85.65,0,0,0-2.29,10.55c-1.45,8.09-10.9,65.87-10.9,65.87s-.34,8.13-7.61,11.11c-2.26.38-6,1.7-5.62,8.21s6.72,4.64,6.72,4.64l42.09-5.87s10.12-2.73,14.55-11.66c2-5.28-1.66-8.77-3.62-8.64a4.77,4.77,0,0,0-3.78,2.09,29.11,29.11,0,0,1-3.28,3.06s.64-1.19,1.87-7.87,9.15-56,9.15-56,10.77-16.25,19-15.83,5.53,21.79,5.53,21.79-1.59,14.79-7,27.49-8.94,21.06-12.9,28-4.23,9.17-2.32,12.28a4.56,4.56,0,0,0,5.2,2l40.89-5.91s11.87-3.88,14.64-13.11c.72-4.81-2.34-7.32-4.3-6.89s-3.53,2.25-4.51,3.19-1.92,3.4-8.64,4.34c3.45-5.28,15.87-25.45,18.34-49.19S724.61,83.23,702.74,84.25Z"/><path d="M839.46,97l-2.6,1.25s-6.3-44.61-56.68-23.34S736,150.64,736,150.64c6.38,35.1,39.19,41.23,64.47,29.17s35.1-30.75,35.1-30.75,2.3-4.42.73-7.83-5.41-3.53-8.73,1.66c-5.19,8.17-13.1,16.6-25.36,20.26-18.38,3.57-22.55-19.41-22.55-19.41a8.92,8.92,0,0,0,2-.51l59.7-34.17a8.36,8.36,0,0,0,2.77-7.57C843.58,96.42,839.46,97,839.46,97Zm-36.3,8.91c-4.66,12.45-12.47,18.7-25.19,25.34,0,0,.61-35.3,14.53-44.49,8.81-6,11-1.59,11.49-.51S807.82,93.45,803.16,105.89Z"/><path d="M926.82,96.3c-6.3-7.66-24-12.56-24-12.56s-9.32-3.44-9-8.93,9.91-10.9,16-9.28c14.85,3.11,16.55,15.37,15.91,18.6s-.06,8.93,4.54,8.93,5-5.84,5-5.84l0-35.9s.22-6.77-4.17-6.77-5.1,6-5.1,6v9.32s-4.49-6.36-19.11-8.15c-17.11-2-32.77,10.62-32.77,10.62s-19.83,13.87-19,35.24,18,25.31,23.06,27.44,15.28,7.24,15.36,13.83c.21,11.15-12.13,16.51-18.68,16.26-11-.39-18.85-3.36-20-8.68s4-10.56,4.89-11.41,5.62,0,5.88-6.72-4.39-6.17-4.39-6.17c-12.51,2.59-16.42,18.85-15.32,27.53s16.17,21.53,38.64,18.47c35.41-3.41,45.92-28.72,45.92-28.72a45.09,45.09,0,0,0,5.66-21C936.1,106.76,933.12,104,926.82,96.3Z"/></g></g></svg>