<svg xmlns="http://www.w3.org/2000/svg" viewBox="0 0 809.52 276.69"><defs><style>.cls-1{fill:#5bba6f;}</style></defs><g id="Camada_6" data-name="Camada 6"><path class="cls-1" d="M143,395V629H413V395ZM367.29,525H273.24v94.05h-26V525H153.16V499h94.06V405h26v94h94.05Zm35.82,84-26,10.07V425l-27.72-9.54-1.37,76V415l29.09-10.06,26,10.06Z" transform="translate(-143 -395)"/><path class="cls-1" d="M427,418.88V406.13h44.62v17.53h-3.19Zm44.62,183.28v17.53H427V606.94l41.43-4.78Zm-14.34-97.22c0-32.83,0-66-1-98.81h30.6c-.95,32.19-.95,65.34-.95,98.81v12.11c0,36.66,0,69.81.95,102.64h-30.6c1-32.2,1-65.35,1-98.81Zm102.63-98.81,14.35,15.94H471.57V406.13H585.36l2.23,56.74H569.74ZM543.61,518h-72V503.35h72ZM594,563l-2.23,56.74H471.57V603.75h109l-14.34,15.94L576.12,563Zm-60.56-56.42,4.78-33.78h14.34v75.54H538.19l-4.78-35.38Z" transform="translate(-143 -395)"/><path class="cls-1" d="M729.11,569.64c0-20.72-12.43-30-40.16-40.8l-12.11-4.78C644.33,511.31,622,492.83,622,460.31c0-36.65,30.92-59,71.4-59,21.36,0,38.25,6.69,52,16.89l-1.91,41.44H724.33l-8.92-48.13,20.39,10.52V438c-15.61-15.3-27.41-20.71-44.3-20.71-24.86,0-43.67,12.43-43.67,36.33,0,20.08,13.07,31.88,36.34,40.8l12.43,4.78c42.07,16.26,58.33,34.74,58.33,64.71,0,37.61-31.56,60.56-75.22,60.56-23.91,0-47.18-7.65-61.84-16.9L619.78,563h19.13L647.2,612l-20.72-8.93v-15.3c19.76,14.35,30.6,20.72,52.27,20.72C709,608.53,729.11,594.5,729.11,569.64Z" transform="translate(-143 -395)"/><path class="cls-1" d="M784.57,422.07l14.35-15.94-10.2,56.74H770.87l2.55-56.74h174L950,462.87H932.15L922,406.13l14.34,15.94Zm79,180.09,44.62,4.78v12.75H812.62V606.94l44.63-4.78Zm-17.53-97.22c0-32.83,0-66-1-98.81h30.6c-1,32.19-1,65.34-1,98.81v15.94c0,32.83,0,66,1,98.81h-30.6c1-32.2,1-65.35,1-98.81Z" transform="translate(-143 -395)"/><path d="M144,645.46v-1.7h10v1.7l-4.62.48h-.93Zm5.36,16.93,4.62.48v1.7H144v-1.7l4.43-.48Zm-3-8.81c0-3.26,0-6.55-.1-9.82h5.51c-.1,3.2-.1,6.49-.1,9.82v1c0,3.46,0,6.76.1,10h-5.51c.1-3.2.1-6.49.1-9.82Zm2.66,1.22V653h12.06v1.84Zm7.12-9.34v-1.7h10v1.7l-4.55.48h-.88Zm5.44,16.93,4.55.48v1.7h-10v-1.7l4.56-.48Zm-3.16-8.81c0-3.26,0-6.55-.09-9.82h5.5c-.09,3.2-.09,6.49-.09,9.82v1.17c0,3.26,0,6.56.09,9.82h-5.5c.09-3.2.09-6.49.09-10Z" transform="translate(-143 -395)"/><path d="M168.25,645.46v-1.7h10.22v1.7l-4.69.48h-.93Zm5.53,16.93,4.69.48v1.7H168.25v-1.7l4.6-.48Zm-3.09-8.81c0-3.26,0-6.55-.1-9.82h5.51c-.09,3.2-.09,6.49-.09,9.82v1.15c0,3.28,0,6.58.09,9.84h-5.51c.1-3.2.1-6.49.1-9.82Z" transform="translate(-143 -395)"/><path d="M180.53,645.46v-1.7h5.1v2.18h-.5Zm6.06,16.93,4.59.48v1.7H180.53v-1.7l4.6-.48ZM183,653.58c0-3.26,0-6.55-.09-9.82h5.5c-.09,3.2-.09,6.49-.09,9.82v1.93c0,2.59,0,5.8.09,9.06h-5.5c.09-3.2.09-6.49.09-9.82Zm6.2,3h-3.54v-1.78h3.59c2.79,0,4.18-1.94,4.18-4.83s-1.55-4.41-4.31-4.41h-3.46v-1.83h3.51c6.61,0,9.23,2.49,9.23,6.26C198.37,653.63,196,656.61,189.17,656.61Z" transform="translate(-143 -395)"/><path d="M220.28,654.17c0,7.29-4.81,11-10,11s-10.05-3.62-10.05-11,4.85-11,10.05-11S220.28,646.79,220.28,654.17Zm-10,9.15c3.18,0,4.44-3.9,4.44-9.15s-1.26-9.18-4.44-9.18-4.45,4-4.45,9.18S207.05,663.32,210.24,663.32Zm1.28-25.43c1-1,1.63-1.27,2.38-1.27a1.69,1.69,0,0,1,1.72,1.61c0,.6-.3,1.4-1.79,2.06l-4.93,2.19-.87-1.24C209.19,640.09,210.4,639,211.52,637.89Z" transform="translate(-143 -395)"/><path d="M221.94,645.46v-1.7h10.44v1.7l-4.69.48h-1.16ZM227,662.39v2.18h-5.09v-1.7l4.59-.48Zm-2.75-18.63h5.51c-.1,3.22-.1,6.51-.1,9.82v1.67c0,2.78,0,6.07.1,9.32h-5.51c.09-3.22.09-6.51.09-9.16v-1.83C224.37,650.3,224.37,647,224.28,643.76Zm14.37,14.6-.31,6.21H227v-1.82h10.24l-2.4,1.82,1.24-6.21Z" transform="translate(-143 -395)"/><path d="M240.11,645.46v-1.7h10.21v1.7l-4.69.48h-.93Zm5.52,16.93,4.69.48v1.7H240.11v-1.7l4.59-.48Zm-3.09-8.81c0-3.26,0-6.55-.09-9.82H248c-.1,3.2-.1,6.49-.1,9.82v1.15c0,3.28,0,6.58.1,9.84h-5.51c.09-3.2.09-6.49.09-9.82Z" transform="translate(-143 -395)"/><path d="M253.16,645.55l2.3-1.79-.83,5.89H252l.11-5.89h18.59l.1,5.89h-2.62l-.83-5.89,2.27,1.79ZM262,662.39l4.78.48v1.7H256v-1.7l4.69-.48Zm-3.31-8.81c0-3.26,0-6.55-.1-9.82h5.51c-.1,3.2-.1,6.49-.1,9.82v1.15c0,3.28,0,6.58.1,9.84h-5.51c.1-3.2.1-6.49.1-9.82Z" transform="translate(-143 -395)"/><path d="M292.05,654.17c0,7.29-4.82,11-10.05,11s-10.05-3.62-10.05-11,4.85-11,10.05-11S292.05,646.79,292.05,654.17ZM282,663.32c3.19,0,4.44-3.9,4.44-9.15S285.19,645,282,645s-4.44,4-4.44,9.18S278.82,663.32,282,663.32Z" transform="translate(-143 -395)"/><path d="M300.92,645.46v-1.7H306v2.18h-.5ZM306,662.39v2.18h-5.09v-1.7l4.59-.48Zm-2.66-8.81c0-3.26,0-6.55-.09-9.82h5.5c-.09,3.2-.09,6.49-.09,9.82v1c0,3.39,0,6.69.09,10h-5.5c.09-3.2.09-6.49.09-9.82Zm10.38-9.82,2.29,1.79H306v-1.79h11.07l.23,5.46h-2.64Zm-.75,11h-7V652.9h7Zm5,4.35-.22,5.46H306V662.8h10.65l-2.3,1.77.94-5.46ZM312,653.44l.47-3h1.84v6.82h-1.84L312,654Z" transform="translate(-143 -395)"/><path d="M319.61,662.87l3.37-.48h.91l4.08.48v1.7h-8.36Zm1.66-18,1.82.9-3.43-.29v-1.73h7.15l11.35,15.59v5.28h-2.68Zm1-1.12,2,1.73v19.08h-2Zm10.2,0h8.35v1.7l-3.21.48h-.88l-4.26-.48Zm3.62,0h2v20.87l-2-2Z" transform="translate(-143 -395)"/><path d="M360.32,663.31a13.68,13.68,0,0,1-7.17,1.85c-6.52,0-11-4.13-11-11,0-6.66,4.15-11,11.33-11a13.35,13.35,0,0,1,6.14,1.46l.13,4.93h-2.46l-1.11-5,2.19.45v1.67a6.68,6.68,0,0,0-4.27-1.69c-3.43,0-6.34,2.86-6.34,9.16s2.79,9.24,6.29,9.24a6.81,6.81,0,0,0,3.59-1.12l-2.41,2v-2.41c0-2.56,0-5-.09-7.55h5.23c-.06,2.53-.09,5-.09,7.67ZM352.37,656v-1.7H362V656l-3.71.49h-2.07Z" transform="translate(-143 -395)"/><path d="M363.21,645.46v-1.7h5.1v2.18h-.5Zm5.1,16.93v2.18h-5.1v-1.7l4.6-.48Zm-2.66-8.81c0-3.26,0-6.55-.1-9.82h5.51c-.1,3.2-.1,6.49-.1,9.82v1c0,3.39,0,6.69.1,10h-5.51c.1-3.2.1-6.49.1-9.82ZM376,643.76l2.29,1.79h-10v-1.79h11.07l.22,5.46H377Zm-.75,11h-7V652.9h7Zm5,4.35-.23,5.46h-11.7V662.8H379l-2.29,1.77.94-5.46Zm-5.93-5.67.48-3h1.83v6.82h-1.83l-.48-3.19Z" transform="translate(-143 -395)"/><path d="M381.91,662.87l3.37-.48h.91l4.07.48v1.7h-8.35Zm1.65-18,1.83.9-3.44-.29v-1.73h7.15l11.36,15.59v5.28h-2.68Zm1-1.12,2,1.73v19.08h-2Zm10.2,0h8.35v1.7l-3.21.48h-.89l-4.25-.48Zm3.62,0h2v20.87l-2-2Z" transform="translate(-143 -395)"/><path d="M404.77,645.46v-1.7h10v1.7l-4.62.48h-.93Zm5.37,16.93,4.62.48v1.7h-10v-1.7l4.44-.48Zm-3-8.81c0-3.26,0-6.55-.09-9.82h5.51c-.1,3.2-.1,6.49-.1,9.82v1c0,3.46,0,6.76.1,10h-5.51c.09-3.2.09-6.49.09-9.82Zm2.66,1.22V653h12.07v1.84Zm7.13-9.34v-1.7h10v1.7l-4.55.48h-.89Zm5.44,16.93,4.55.48v1.7H417v-1.7l4.55-.48Zm-3.16-8.81c0-3.26,0-6.55-.1-9.82h5.51c-.09,3.2-.09,6.49-.09,9.82v1.17c0,3.26,0,6.56.09,9.82h-5.51c.1-3.2.1-6.49.1-10Z" transform="translate(-143 -395)"/><path d="M428.23,662.87l3.25-.48h.57l3,.48v1.7h-6.82Zm9-19.15h3.27l7.12,20.85h-5.41l-5.41-17L438,646l-6.05,18.6h-1.88Zm-3.41,13h8.55l.71,1.84h-9.79Zm5.32,6.25,3.58-.47h2.12l4.06.47v1.64h-9.76Z" transform="translate(-143 -395)"/><path d="M450.26,645.46v-1.7h5.1v2.18h-.5Zm5.6,16.93,4.59.48v1.7H450.26v-1.7l4.6-.48Zm-3.16-8.81c0-3.26,0-6.55-.1-9.82H458c-.1,3.23-.1,6.47-.1,9.91v1c0,3.37,0,6.67.1,9.93H452.6c.1-3.2.1-6.49.1-9.82Zm2.7-.34h3.73c3.15,0,4.11-1.84,4.11-3.88,0-2.55-1.38-3.77-4-3.77h-3.91v-1.83h5.2c5,0,7.74,2,7.74,5.26,0,2.41-1.8,4.9-7.41,5.2l0-.32c5,.15,6.25,1.79,6.81,5.19l.84,4.89-2.6-1.63,4.74.52v1.7a12,12,0,0,1-3.46.45c-2.7,0-4.28-.78-4.59-3.24l-.59-3.68c-.32-2.13-1.1-3.1-3-3.1H455.4Z" transform="translate(-143 -395)"/><path d="M471.88,645.46v-1.7h10.21v1.7l-4.68.48h-.93Zm5.53,16.93,4.68.48v1.7H471.88v-1.7l4.6-.48Zm-3.09-8.81c0-3.26,0-6.55-.1-9.82h5.51c-.09,3.2-.09,6.49-.09,9.82v1.15c0,3.28,0,6.58.09,9.84h-5.51c.1-3.2.1-6.49.1-9.82Z" transform="translate(-143 -395)"/><path d="M483.4,662.87l3.26-.48h.56l3,.48v1.7H483.4Zm9-19.15h3.27l7.12,20.85h-5.41l-5.4-17,1.18-1.6-6.05,18.6h-1.87Zm-3.41,13h8.55l.71,1.84h-9.79Zm5.33,6.25,3.57-.47H500l4.07.47v1.64h-9.76Z" transform="translate(-143 -395)"/><path d="M514.83,658.74a5,5,0,0,0,5.25,5,7.67,7.67,0,0,0,6.28-3l.62.54a8.57,8.57,0,0,1-7.23,3.73c-3.94,0-6.53-2.64-6.53-5.8,0-3,1.78-5.21,5.6-7l.39.64C516.11,654.43,514.83,656.53,514.83,658.74Zm2.8-7a6.85,6.85,0,0,1-2.07-4.66c0-2.66,2.09-4.34,4.78-4.34,2.89,0,4.4,1.76,4.4,4,0,2.46-1.94,4.12-5.2,5.85l-.33-.65c2.56-1.58,4.22-3,4.22-5.19a3,3,0,0,0-3.11-3.18,3.31,3.31,0,0,0-3.42,3.33c0,1.24.29,2.18,1.65,3.8,1.5,1.78,2.54,2.89,4.11,4.61,2.28,2.5,4.4,4.75,8,8.62l-1.3-.62,3.84.43-.07.83a8.67,8.67,0,0,1-1.91.22,3.66,3.66,0,0,1-3-1.08c-2.43-2.75-4.35-4.86-6.38-7.13C520.28,654.8,519.48,653.87,517.63,651.78Zm12.27-.23H531a19.69,19.69,0,0,1-3.88,9.55l-.64-.46A18.78,18.78,0,0,0,529.9,651.55Zm.22.8-3-.31v-.89h6V652l-2.63.31Z" transform="translate(-143 -395)"/><path d="M553.34,660.26c0-1.67-.82-2.43-2.73-3.28l-1.34-.61c-3.73-1.7-5.88-3.58-5.88-7.09,0-3.8,3.07-6.11,7.87-6.11a11.19,11.19,0,0,1,6,1.61l-.26,4.44h-2.9l-.77-4.78,2.55.91v1.58c-1.69-1.22-2.88-1.88-4.52-1.88a3,3,0,0,0-3.26,2.88c0,1.68,1,2.55,2.88,3.39l1.48.68c4,1.82,5.71,3.57,5.71,6.77,0,3.74-2.86,6.39-8.27,6.39A13.9,13.9,0,0,1,543,663.5l.19-4.71h2.95l.82,5.13-2.44-.77v-1.52a10.22,10.22,0,0,0,5.35,1.65C552.12,663.28,553.34,662,553.34,660.26Z" transform="translate(-143 -395)"/><path d="M560,645.46v-1.7h5.09v2.18h-.5Zm5.09,16.93v2.18H560v-1.7l4.59-.48Zm-2.66-8.81c0-3.26,0-6.55-.09-9.82h5.51c-.1,3.2-.1,6.49-.1,9.82v1c0,3.39,0,6.69.1,10h-5.51c.09-3.2.09-6.49.09-9.82Zm10.38-9.82,2.29,1.79h-10v-1.79h11.08l.22,5.46h-2.64Zm-.74,11h-7V652.9h7Zm4.95,4.35-.22,5.46H565.1V662.8h10.65l-2.29,1.77.93-5.46Zm-5.92-5.67.47-3h1.84v6.82h-1.84l-.47-3.19Z" transform="translate(-143 -395)"/><path d="M596.55,663.31a13.66,13.66,0,0,1-7.17,1.85c-6.51,0-11-4.13-11-11,0-6.66,4.16-11,11.34-11a13.38,13.38,0,0,1,6.14,1.46l.12,4.93h-2.45l-1.12-5,2.2.45v1.67a6.68,6.68,0,0,0-4.27-1.69c-3.43,0-6.35,2.86-6.35,9.16s2.8,9.24,6.3,9.24a6.84,6.84,0,0,0,3.59-1.12l-2.41,2v-2.41c0-2.56,0-5-.09-7.55h5.23c-.07,2.53-.1,5-.1,7.67ZM588.6,656v-1.7h9.65V656l-3.71.49h-2.07Z" transform="translate(-143 -395)"/><path d="M598.83,645.46v-1.7h10.33v1.7l-4.71.48h-.91ZM611,662.28c2.85,0,4.55-1.9,4.55-6.68V643.76h2.06V655.6c0,6.72-3.12,9.56-8.35,9.56-4.68,0-8.08-2.32-8.08-8.46v-3.44c0-3.12,0-6.33-.1-9.5h5.51c-.1,3.11-.1,6.31-.1,9.5v2.43C606.49,660.54,608,662.28,611,662.28Zm5-16.52-3.37-.3v-1.7h7.56v1.7l-3.26.3Z" transform="translate(-143 -395)"/><path d="M621.58,645.46v-1.7h5.09v2.18h-.5Zm5.59,16.93,4.6.48v1.7H621.58v-1.7l4.59-.48ZM624,653.58c0-3.26,0-6.55-.09-9.82h5.41c-.09,3.23-.09,6.47-.09,9.91v1c0,3.37,0,6.67.09,9.93h-5.41c.09-3.2.09-6.49.09-9.82Zm2.71-.34h3.73c3.14,0,4.1-1.84,4.1-3.88,0-2.55-1.38-3.77-4-3.77h-3.92v-1.83h5.21c5,0,7.74,2,7.74,5.26,0,2.41-1.81,4.9-7.41,5.2l0-.32c5,.15,6.26,1.79,6.81,5.19l.85,4.89-2.61-1.63,4.75.52v1.7a12.08,12.08,0,0,1-3.47.45c-2.69,0-4.28-.78-4.59-3.24l-.59-3.68c-.31-2.13-1.1-3.1-3-3.1h-3.67Z" transform="translate(-143 -395)"/><path d="M642.75,662.87l3.26-.48h.56l3,.48v1.7h-6.82Zm9-19.15H655l7.12,20.85h-5.41l-5.4-17,1.18-1.6-6,18.6h-1.87Zm-3.41,13h8.55l.71,1.84h-9.79Zm5.33,6.25,3.57-.47h2.12l4.06.47v1.64h-9.75Z" transform="translate(-143 -395)"/><path d="M664.65,662.87l3.37-.48h.91l4.07.48v1.7h-8.35Zm1.65-18,1.83.9-3.44-.29v-1.73h7.15l11.36,15.59v5.28h-2.68Zm1-1.12,2,1.73v19.08h-2Zm10.2,0h8.35v1.7l-3.21.48h-.89l-4.25-.48Zm3.62,0h2v20.87l-2-2Z" transform="translate(-143 -395)"/><path d="M703.64,661.55v1.62l-2.12.47,1.06-5H705l-.12,4.86a13.65,13.65,0,0,1-6.65,1.62c-6.1,0-11-3.6-11-11s5.28-11,11.22-11a12.31,12.31,0,0,1,6.2,1.57l.13,4.91h-2.41l-1.09-5,2.12.48v1.75a6.09,6.09,0,0,0-4.2-1.92c-3.39,0-6.36,2.76-6.36,9.23s2.85,9.15,6.2,9.15A7.61,7.61,0,0,0,703.64,661.55ZM697,664.43h1.64l-.29,2.44-1-.83c3,.26,4.24,1.38,4.24,2.84,0,1.62-1.43,2.81-4.27,2.81a6.75,6.75,0,0,1-2.46-.42l.33-1.45a5.57,5.57,0,0,0,1.68.25c1.15,0,1.66-.48,1.66-1.2,0-.94-.69-1.38-2-1.49Z" transform="translate(-143 -395)"/><path d="M705.9,662.87l3.26-.48h.56l3,.48v1.7H705.9Zm9-19.15h3.27l7.12,20.85h-5.41l-5.4-17,1.18-1.6-6,18.6h-1.87Zm-3.41,13H720l.71,1.84H711Zm5.33,6.25,3.58-.47h2.11l4.07.47v1.64h-9.76Z" transform="translate(-143 -395)"/><path d="M734.8,645.46v-1.7h5.1v2.18h-.5Zm5.1,16.93v2.18h-5.1v-1.7l4.6-.48Zm-2.66-8.81c0-3.26,0-6.55-.09-9.82h5.5c-.09,3.2-.09,6.49-.09,9.82v1c0,3.39,0,6.69.09,10h-5.5c.09-3.2.09-6.49.09-9.92Zm2.66,9.16h3.76c3.63,0,5.87-3.1,5.87-8.59s-2.24-8.56-5.81-8.56H739.9v-1.83h4.31c6.75,0,10.81,4,10.81,10.35,0,6.61-4.45,10.46-11.37,10.46H739.9Z" transform="translate(-143 -395)"/><path d="M777.78,654.17c0,7.29-4.81,11-10,11s-10.06-3.62-10.06-11,4.86-11,10.06-11S777.78,646.79,777.78,654.17Zm-10,9.15c3.18,0,4.43-3.9,4.43-9.15s-1.25-9.18-4.43-9.18-4.45,4-4.45,9.18S764.55,663.32,767.74,663.32Z" transform="translate(-143 -395)"/><path d="M787.24,645.55l2.29-1.79-.83,5.89h-2.64l.12-5.89h18.59l.09,5.89h-2.62l-.83-5.89,2.27,1.79Zm8.88,16.84,4.77.48v1.7H790.05v-1.7l4.68-.48Zm-3.32-8.81c0-3.26,0-6.55-.09-9.82h5.5c-.09,3.2-.09,6.49-.09,9.82v1.15c0,3.28,0,6.58.09,9.84h-5.5c.09-3.2.09-6.49.09-9.82Z" transform="translate(-143 -395)"/><path d="M806.53,645.46v-1.7h5.1v2.18h-.5Zm5.6,16.93,4.59.48v1.7H806.53v-1.7l4.6-.48ZM809,653.58c0-3.26,0-6.55-.1-9.82h5.42c-.1,3.23-.1,6.47-.1,9.91v1c0,3.37,0,6.67.1,9.93h-5.42c.1-3.2.1-6.49.1-9.82Zm2.7-.34h3.73c3.15,0,4.11-1.84,4.11-3.88,0-2.55-1.38-3.77-4-3.77h-3.91v-1.83h5.2c5,0,7.74,2,7.74,5.26,0,2.41-1.8,4.9-7.41,5.2l0-.32c5,.15,6.25,1.79,6.81,5.19l.84,4.89-2.6-1.63,4.75.52v1.7a12.08,12.08,0,0,1-3.47.45c-2.7,0-4.28-.78-4.59-3.24l-.59-3.68c-.32-2.13-1.1-3.1-3-3.1h-3.67Z" transform="translate(-143 -395)"/><path d="M827.71,662.87l3.25-.48h.57l3,.48v1.7h-6.82Zm9-19.15H840l7.12,20.85h-5.41l-5.41-17,1.19-1.6-6.05,18.6h-1.88Zm-3.41,13h8.55l.71,1.84h-9.79Zm5.32,6.25,3.58-.47h2.12l4.06.47v1.64h-9.76Z" transform="translate(-143 -395)"/><path d="M849.74,645.46v-1.7h5.1v2.18h-.5Zm5.1,16.93v2.18h-5.1v-1.7l4.6-.48Zm-2.66-8.67c0-3.31,0-6.65-.1-10h5.42c-.1,3.25-.1,6.59-.1,10v.76c0,3.46,0,6.78.1,10.09h-5.42c.1-3.25.1-6.56.1-9.93Zm2.66-.86h3.45c2.68,0,3.93-1.3,3.93-3.8,0-2.35-1.15-3.47-3.64-3.47h-3.74v-1.83H860c5.36,0,7.37,2.11,7.37,4.9,0,2.35-1.46,4.36-6.58,5v-.29c5.6.34,7.81,2.33,7.81,5.4,0,2.65-1.94,5.84-9.82,5.84h-3.92v-1.83h3.66c2.93,0,4.63-1.39,4.63-4.06,0-2.88-1.5-4.14-4.65-4.14h-3.64Z" transform="translate(-143 -395)"/><path d="M868.41,662.87l3.26-.48h.56l3,.48v1.7h-6.83Zm9-19.15h3.27l7.13,20.85h-5.42l-5.4-17,1.18-1.6-6,18.6h-1.88Zm-3.4,13h8.54l.72,1.84h-9.79Zm5.32,6.25,3.58-.47H885l4.06.47v1.64h-9.76Z" transform="translate(-143 -395)"/><path d="M890.45,645.46v-1.7h10.44v1.7l-4.69.48H895Zm5.09,16.93v2.18h-5.09v-1.7l4.59-.48Zm-2.75-18.63h5.51c-.1,3.22-.1,6.51-.1,9.82v1.67c0,2.78,0,6.07.1,9.32h-5.51c.1-3.22.1-6.51.1-9.16v-1.83C892.89,650.3,892.89,647,892.79,643.76Zm14.37,14.6-.31,6.21H895.54v-1.82h10.24l-2.4,1.82,1.24-6.21Z" transform="translate(-143 -395)"/><path d="M908.62,645.46v-1.7h10v1.7l-4.62.48h-.93ZM914,662.39l4.62.48v1.7h-10v-1.7l4.43-.48Zm-3-8.81c0-3.26,0-6.55-.1-9.82h5.51c-.09,3.2-.09,6.49-.09,9.82v1c0,3.46,0,6.76.09,10h-5.51c.1-3.2.1-6.49.1-9.82Zm2.66,1.22V653h12.06v1.84Zm7.13-9.34v-1.7h10v1.7l-4.55.48h-.88Zm5.43,16.93,4.55.48v1.7h-10v-1.7l4.55-.48Zm-3.16-8.81c0-3.26,0-6.55-.09-9.82h5.5c-.09,3.2-.09,6.49-.09,9.82v1.17c0,3.26,0,6.56.09,9.82H923c.09-3.2.09-6.49.09-10Z" transform="translate(-143 -395)"/><path d="M952.52,654.17c0,7.29-4.82,11-10,11s-10.05-3.62-10.05-11,4.86-11,10.05-11S952.52,646.79,952.52,654.17Zm-10,9.15c3.19,0,4.44-3.9,4.44-9.15s-1.25-9.18-4.44-9.18-4.44,4-4.44,9.18S939.29,663.32,942.47,663.32Z" transform="translate(-143 -395)"/></g></svg>