<svg xmlns="http://www.w3.org/2000/svg" viewBox="0 0 917.06 166.49"><g id="Camada_2" data-name="Camada 2"><g id="Camada_2-2" data-name="Camada 2"><path d="M102,116.16H11.89A11.91,11.91,0,0,1,0,104.27V7A5,5,0,0,1,10,7v97.28a1.89,1.89,0,0,0,1.89,1.89H102a5,5,0,1,1,0,10Z"/><path d="M208.15,116.16H126.28a8.84,8.84,0,0,1-8.83-8.83V65.88a8.84,8.84,0,0,1,8.83-8.83h81.87A8.84,8.84,0,0,1,217,65.88v41.45A8.84,8.84,0,0,1,208.15,116.16Zm-80.7-10H207V67.05H127.45Zm80.7-39.11h0Z"/><path d="M590.46,45.76V22.69C590.46,10,581.78,0,570.7,0H394.19c-11.07,0-19.75,10-19.75,22.69v22.1A18.44,18.44,0,0,1,386,61.88v42.73a18.44,18.44,0,0,1-11.55,17.09v22.1c0,12.72,8.68,22.69,19.75,22.69H570.7c11.08,0,19.76-10,19.76-22.69V128.45c-.31,0-.63,0-1,0A13.52,13.52,0,0,1,576,115V63.76A18.45,18.45,0,0,1,590.46,45.76Zm-23,97.73h-170V23h170Z"/><path d="M261.92,146.88H206a5,5,0,1,1,0-10h45.9V45.54a5,5,0,1,1,10,0Z"/><path d="M256.92,34.54a6.36,6.36,0,1,1,6.36-6.36A6.37,6.37,0,0,1,256.92,34.54Z"/><path d="M367.55,114.54H283.34a8.8,8.8,0,0,1-8.79-8.78V87a8.8,8.8,0,0,1,8.79-8.78h84.17l0-16.37L288.74,62a5,5,0,0,1,0-10h78.81a9.94,9.94,0,0,1,9.94,9.93v42.73A9.94,9.94,0,0,1,367.55,114.54Zm-83-10h83l0-16.29h-83Z"/><path d="M358.36,38.12h-62a5,5,0,0,1,0-10h62a5,5,0,1,1,0,10Z"/><path d="M705.94,120a5,5,0,0,1-5-5V63.76a9.94,9.94,0,0,1,9.93-9.94h89a5,5,0,0,1,0,10h-89l.07,51.17A5,5,0,0,1,705.94,120Z"/><path d="M589.51,120a5,5,0,0,1-5-5V63.76a10,10,0,0,1,9.94-9.94h89a5,5,0,0,1,0,10h-89l.06,51.17A5,5,0,0,1,589.51,120Z"/><path d="M907.47,110.8H824.06a9.61,9.61,0,0,1-9.59-9.6v-49a5,5,0,1,1,10,0V100.8h82.59V52.18a5,5,0,1,1,10,0v49A9.61,9.61,0,0,1,907.47,110.8Z"/><path d="M865.76,57.18a5,5,0,0,1-3.62-8.44l16.17-17a5,5,0,0,1,7.25,6.88l-16.17,17A5,5,0,0,1,865.76,57.18Z"/></g></g></svg>