<svg xmlns="http://www.w3.org/2000/svg" viewBox="0 0 894.94 678.08"><g id="Camada_2" data-name="Camada 2"><g id="Camada_3" data-name="Camada 3"><path d="M580.45,404.25V350.2H417.58V429H555.76A24.69,24.69,0,0,0,580.45,404.25Z"/><path d="M669.47,315.72V261.67H506.6v78.75H644.77A24.7,24.7,0,0,0,669.47,315.72Z"/><path d="M673.87,113.72A24.7,24.7,0,0,0,649.17,89h-54V251.89h78.74Z"/><path d="M585.35,24.7A24.7,24.7,0,0,0,560.65,0h-54V162.87h78.75Z"/><path d="M492.66,0H354.49a24.7,24.7,0,0,0-24.7,24.7V78.75H492.66Z"/><path d="M403.64,88.53H265.47a24.7,24.7,0,0,0-24.7,24.7v54H403.64Z"/><path d="M265.47,339.93h54V177.06H240.77V315.23A24.7,24.7,0,0,0,265.47,339.93Z"/><path d="M329.3,404.25A24.7,24.7,0,0,0,354,429h54V266.07H329.3Z"/><path d="M62.19,469.1l-61.8,0V612.61H24.81V559.16H65.74c2.23,0,17.6-.33,29.24-11.82,5.48-5.41,12-15.34,12-31.94C107,481.11,77.68,470.12,62.19,469.1Zm3.63,65.63h-41V493.5H60.86c4.4.42,21.7,3.3,21.7,21.9C82.56,532.63,70.88,534.66,65.82,534.73Z"/><path d="M258.13,488.85c-21.32-20.14-51.61-20-56.34-19.79-4.73-.08-34.4.22-55.22,20.21-13.27,12.74-20,30.29-20,52.17,0,21.52,6.63,38.87,19.72,51.59,20.78,20.18,50.61,20.8,55.34,20.79.58,0,1.52.06,2.77.06,9.2,0,35.09-1.68,53.9-19.25,13.5-12.61,20.35-30.26,20.35-52.45C278.66,519.66,271.75,501.72,258.13,488.85Zm-16.39,87.83c-14.88,14-38.83,12.75-39.07,12.74l-.55,0h-.54c-.23,0-23.75.33-38.37-14-8.1-7.93-12.21-19.36-12.21-34,0-14.9,4.16-26.49,12.37-34.44,14.57-14.1,37.83-13.53,38-13.51h.6l.54,0c.23,0,24-1,38.94,13.23,8.47,8.07,12.77,20,12.77,35.47C254.24,557.27,250,568.88,241.74,576.68Z"/><polygon points="398.14 587.56 321.95 587.56 321.95 470.28 297.52 470.28 297.52 611.98 398.14 611.98 398.14 587.56"/><rect x="423.71" y="470.28" width="24.42" height="141.6"/><polygon points="630.58 611.87 630.58 470.28 604.59 470.28 553.66 567.68 498.85 470.28 472.62 470.28 472.62 611.87 497.05 611.87 497.05 516.89 550.48 611.87 558.11 611.87 606.16 519.99 606.16 611.87 630.58 611.87"/><polygon points="651.63 613.08 737.46 613.08 737.46 588.66 676.06 588.66 676.06 549.25 737.46 549.25 737.46 524.83 676.06 524.83 676.06 494.47 737.46 494.47 737.46 470.05 651.63 470.05 651.63 613.08"/><path d="M835.12,613c20.69-3.07,59.82-22.05,59.82-71.88,0-50.05-41.43-68.29-63.33-70.93l-.73-.09H758v143h76.21Zm-52.68-24.29V494.47h46.87c5.45.83,41.2,7.75,41.2,46.6,0,17.16-6.28,30.28-18.68,39a55.86,55.86,0,0,1-19.62,8.58Z"/><path d="M9.53,645.6a10.2,10.2,0,0,1,14,3.57l3.93-2.26a14.73,14.73,0,1,0,0,14.93l-3.93-2.27a10.07,10.07,0,0,1-3.58,3.58A10.2,10.2,0,0,1,9.53,645.6Z"/><rect x="43.9" y="639.2" width="4.27" height="29.47"/><path d="M73.39,639.23a2.34,2.34,0,1,0,2.35,2.32A2.35,2.35,0,0,0,73.39,639.23Z"/><rect x="71.26" y="648.6" width="4.27" height="20.07"/><path d="M112.92,649.51a9.49,9.49,0,0,0-9.65.52v-1.17H99.06v19.81h4.21V658.13h0a1.48,1.48,0,0,1,0-.21,5.27,5.27,0,1,1,10.54,0v.21h0v10.54H118v-11A9.49,9.49,0,0,0,112.92,649.51Z"/><path d="M144.16,639.23a2.34,2.34,0,1,0,2.35,2.32A2.36,2.36,0,0,0,144.16,639.23Z"/><rect x="142.03" y="648.6" width="4.27" height="20.07"/><path d="M174.41,653.08a5.92,5.92,0,0,1,6.66,2.44l3.82-2.2a10.34,10.34,0,1,0,0,10.9l-3.82-2.2a5.94,5.94,0,1,1-6.66-8.94Z"/><path d="M221.41,650.77a10.33,10.33,0,1,0,0,16v1.91h4.21V648.86h-4.21Zm-6.54,13.94a5.94,5.94,0,1,1,5.94-5.94A5.94,5.94,0,0,1,214.87,664.71Z"/><path d="M291.25,650.2a10.47,10.47,0,1,0,0,16.88v1.6h4.28V639.2h-4.28Zm-6.19,14.45a6,6,0,1,1,6-6A6,6,0,0,1,285.06,664.65Z"/><path d="M327.12,648.44a10.33,10.33,0,1,0,7.57,17.38L331.57,663a6.12,6.12,0,0,1-10.11-1.89H337.2a10.65,10.65,0,0,0,.26-2.32A10.33,10.33,0,0,0,327.12,648.44Zm-5.93,8.86a6.11,6.11,0,0,1,11.87,0Z"/><polygon points="385.42 668.67 403.46 668.67 403.46 664.27 389.82 664.27 389.82 656.57 401.26 656.57 401.26 652.17 389.82 652.17 389.82 644.48 403.46 644.48 403.46 640.08 385.42 640.08 385.42 668.67"/><path d="M434.38,657c-2.62-.22-3-.9-3.27-1.34a2.5,2.5,0,0,1,.59-2.64c1.37-1.47,3.57-1.33,6.22,1.3l2.9-2.79c-3.77-3.74-9.3-4.3-12.62-.76a5.6,5.6,0,0,0-1,6.54c1.22,2,3.82,2.93,6.84,3.18,2.66.22,3.06.91,3.32,1.36a2.49,2.49,0,0,1-.6,2.6c-1.37,1.47-4.56,1.33-7.2-1.3l-2.9,2.79c5.19,5.15,14.5,3.78,15.27-3a4.72,4.72,0,0,0-.62-2.77C440.07,658.19,437.42,657.3,434.38,657Z"/><path d="M480.58,649.3a10.5,10.5,0,0,0-10.93.9v-1.6h-4.27v29.48h4.27v-11a10.47,10.47,0,1,0,10.93-17.78Zm-4.73,15.3a6,6,0,1,1,6-6A6,6,0,0,1,475.85,664.6Z"/><path d="M515.52,648.44a10.33,10.33,0,1,0,7.56,17.38L520,663a6.11,6.11,0,0,1-10.1-1.89h15.73a10.06,10.06,0,0,0,.26-2.32A10.32,10.32,0,0,0,515.52,648.44Zm-5.94,8.86a6.12,6.12,0,0,1,11.88,0Z"/><path d="M556.1,653.08a5.93,5.93,0,0,1,6.66,2.44l3.81-2.2a10.33,10.33,0,1,0,0,10.9l-3.81-2.2a5.94,5.94,0,1,1-6.66-8.94Z"/><rect x="585.74" y="648.6" width="4.27" height="20.07"/><path d="M587.87,639.23a2.34,2.34,0,1,0,2.35,2.32A2.35,2.35,0,0,0,587.87,639.23Z"/><path d="M629.13,650.77a10.33,10.33,0,1,0,0,16v1.91h4.22V648.86h-4.22Zm-6.53,13.94a5.94,5.94,0,1,1,5.93-5.94A5.94,5.94,0,0,1,622.6,664.71Z"/><rect x="655.73" y="639.2" width="4.27" height="29.47"/><rect x="683.76" y="648.6" width="4.27" height="20.07"/><path d="M685.9,639.23a2.34,2.34,0,1,0,2.35,2.32A2.35,2.35,0,0,0,685.9,639.23Z"/><path d="M724.75,650.2a10.47,10.47,0,1,0,0,16.88v1.6H729V639.2h-4.27Zm-6.2,14.45a6,6,0,1,1,6-6A6,6,0,0,1,718.55,664.65Z"/><path d="M765.76,650.77a10.33,10.33,0,0,0-16.87,8,10.33,10.33,0,0,0,16.87,8v1.91H770V648.86h-4.22Zm-6.54,13.94a5.94,5.94,0,1,1,5.94-5.94A5.93,5.93,0,0,1,759.22,664.71Z"/><path d="M809.08,650.2a10.47,10.47,0,1,0,0,16.88v1.6h4.28V639.2h-4.28Zm-6.19,14.45a6,6,0,1,1,6-6A6,6,0,0,1,802.89,664.65Z"/><path d="M843.56,648.44a10.33,10.33,0,1,0,7.56,17.38L848,663a6.11,6.11,0,0,1-10.1-1.89h15.73a10.07,10.07,0,0,0,.27-2.32A10.33,10.33,0,0,0,843.56,648.44Zm-5.94,8.86a6.12,6.12,0,0,1,11.88,0Z"/><path d="M882.88,657c-2.61-.22-3-.9-3.27-1.34a2.5,2.5,0,0,1,.59-2.64c1.38-1.47,3.58-1.33,6.22,1.3l2.91-2.79c-3.77-3.74-9.3-4.3-12.62-.76a5.62,5.62,0,0,0-1,6.54c1.22,2,3.82,2.93,6.85,3.18,2.65.22,3.05.91,3.31,1.36a2.47,2.47,0,0,1-.59,2.6c-1.38,1.47-4.56,1.33-7.21-1.3l-2.9,2.79c5.19,5.15,14.51,3.78,15.27-3a4.71,4.71,0,0,0-.61-2.77C888.57,658.19,885.93,657.3,882.88,657Z"/></g></g></svg>