<svg xmlns="http://www.w3.org/2000/svg" viewBox="0 0 713.54 376.68"><g id="Camada_2" data-name="Camada 2"><g id="Camada_2-2" data-name="Camada 2"><circle cx="330.06" cy="45.82" r="34.04" transform="translate(64.27 246.81) rotate(-45)"/><circle cx="476.1" cy="111.18" r="21.11"/><circle cx="182.99" cy="111.18" r="12.26"/><path d="M323.64,153.75l12.06,8.65a8.6,8.6,0,0,0,11.85-1.77l11.24-14.74a8.61,8.61,0,0,0-1.74-12.15L354.66,132,494.13,34.06a7.81,7.81,0,0,0,1.73-11.13L480.75,3.08a7.81,7.81,0,0,0-10.84-1.56L323.41,109,230.12,40.39a8.6,8.6,0,0,0-11.78,1.52L205.49,57.8a8.61,8.61,0,0,0,1.67,12.4l87.1,62.47a6.24,6.24,0,0,0,1.16,4.66l14.08,18.94a6.23,6.23,0,0,0,8.59,1.38Z"/><path d="M419.44,109.8a5,5,0,0,0-6.88.89l-7.5,9.27a5,5,0,0,0,1,7.24l50.84,36.47a3.66,3.66,0,0,0,.68,2.72l8.22,11.06a3.63,3.63,0,0,0,5,.8L474,176l7,5a5,5,0,0,0,6.92-1l6.57-8.61a5,5,0,0,0-1-7.09l-1.4-1,81.42-57.17a4.55,4.55,0,0,0,1-6.49L565.75,88a4.57,4.57,0,0,0-6.33-.92L473.9,149.85Z"/><path d="M192.76,141.42l-.83-.62,48.46-34a2.71,2.71,0,0,0,.6-3.87L235.74,96a2.71,2.71,0,0,0-3.77-.55l-50.9,37.35L148.66,109a3,3,0,0,0-4.1.53L140.1,115a3,3,0,0,0,.58,4.31L170.94,141a2.18,2.18,0,0,0,.41,1.62l4.89,6.58a2.15,2.15,0,0,0,3,.48l1.93-1.35,4.19,3a3,3,0,0,0,4.12-.61l3.91-5.12A3,3,0,0,0,192.76,141.42Z"/><path d="M71.38,281.5c-1.83-1.42-4.4-3.45-7.73-6.06Q37.24,254.5,37.24,246.65a8.58,8.58,0,0,1,2.61-6.6,9.71,9.71,0,0,1,6.9-2.44q5.72,0,8.45,3.68t2.74,11.43v9.51H91.6v-10.7q0-25-10.47-35.4t-34.85-10.4q-22.14,0-34.09,10.88T.24,247.6q0,23,31.64,49.85,3.69,3.09,5.59,4.75Q48.78,312,52.28,318.32a29.7,29.7,0,0,1,3.51,14.58c0,3.88-.77,6.92-2.32,9.1A7.48,7.48,0,0,1,47,345.27a7.82,7.82,0,0,1-7.43-4.34q-2.33-4.35-2.32-14.1V308.27H0v20.22q0,25,11.24,36.59t35.27,11.6q23.21,0,34.74-12t11.54-36.17q0-16.29-5-27.18T71.38,281.5Z"/><polygon points="149.3 299.47 186.18 299.47 186.18 268.06 149.3 268.06 149.3 239.75 187.6 239.75 187.6 208.1 112.54 208.1 112.54 374.53 189.27 374.53 189.27 342.89 149.3 342.89 149.3 299.47"/><path d="M295.92,280.2q3-8.68,3-21.89,0-28-9.63-39.08T256.13,208.1H206.88V374.53h36.76V299.47h9l9.51,75.06h38.55L287.06,292Q292.88,288.88,295.92,280.2Zm-36.1-12.44q-2.86,3.51-11.31,3.51h-6.06v-33.9h7.37q6.9,0,9.88,3.75t3,12.55Q262.67,264.26,259.82,267.76Z"/><path d="M367,208.1H317.75V374.53h36.76V299.47h12q24.15,0,33.73-9.22t9.58-31.94q0-28.08-9.52-39.14T367,208.1Zm3.63,59.55c-1.95,2.42-5.49,3.62-10.65,3.62h-6.66v-33.9h7.38c4.59,0,7.89,1.25,9.87,3.75s3,6.68,3,12.55Q373.54,264,370.63,267.65Z"/><path d="M511.12,280.2q3-8.68,3-21.89,0-28-9.64-39.08T471.33,208.1H422.08V374.53h36.76V299.47h9l9.52,75.06h38.54L502.26,292Q508.1,288.88,511.12,280.2ZM475,267.76q-2.85,3.51-11.3,3.51h-6.07v-33.9H465c4.59,0,7.89,1.25,9.87,3.75s3,6.68,3,12.55Q477.88,264.26,475,267.76Z"/><polygon points="569.72 299.47 606.59 299.47 606.59 268.06 569.72 268.06 569.72 239.75 608.02 239.75 608.02 208.1 532.96 208.1 532.96 374.53 609.69 374.53 609.69 342.89 569.72 342.89 569.72 299.47"/><path d="M677,208.1v47.83q0,36.75-2.08,55a140.07,140.07,0,0,1-7,31.7,144.88,144.88,0,0,1-6.9-31.64q-2.15-18.31-2.14-55.08V208.1H622.18v50.21q0,42.7,6.12,69.29t19.93,46.93h39.26q13.8-20.34,19.93-46.93t6.12-69.29V208.1Z"/></g></g></svg>